<svg xmlns="http://www.w3.org/2000/svg" viewBox="0 0 16 16" shape-rendering="crispEdges">
  <rect width="16" height="16" fill="#c94b3b"/>
  <rect x="0" y="0" width="2" height="6" fill="#a83a2c"/><rect x="4" y="0" width="2" height="6" fill="#e0604e"/><rect x="8" y="0" width="2" height="6" fill="#a83a2c"/><rect x="12" y="0" width="2" height="6" fill="#e0604e"/>
  <rect x="0" y="10" width="2" height="6" fill="#e0604e"/><rect x="4" y="10" width="2" height="6" fill="#a83a2c"/><rect x="8" y="10" width="2" height="6" fill="#e0604e"/><rect x="12" y="10" width="2" height="6" fill="#a83a2c"/>
  <rect x="0" y="6" width="16" height="4" fill="#e8dcc8"/>
  <rect x="2" y="7" width="2" height="2" fill="#1a1a1a"/>
  <rect x="5" y="7" width="2" height="2" fill="#1a1a1a"/>
  <rect x="8" y="7" width="1" height="2" fill="#1a1a1a"/><rect x="9" y="7" width="2" height="1" fill="#1a1a1a"/><rect x="9" y="8" width="1" height="1" fill="#1a1a1a"/>
  <rect x="12" y="7" width="2" height="2" fill="#1a1a1a"/>
</svg>
